<svg xmlns="http://www.w3.org/2000/svg" version="1.1" xmlns:xlink="http://www.w3.org/1999/xlink" xmlns:svgjs="http://svgjs.dev/svgjs" width="1500" height="1500" viewBox="0 0 1500 1500"><rect width="1500" height="1500" fill="#ffffff"></rect><g transform="matrix(0.6666666666666666,0,0,0.6666666666666666,249.39393939393938,655.5625187569285)"><svg viewBox="0 0 396 74" data-background-color="#149fa8" preserveAspectRatio="xMidYMid meet" height="280" width="1500" xmlns="http://www.w3.org/2000/svg" xmlns:xlink="http://www.w3.org/1999/xlink"><g id="tight-bounds" transform="matrix(1,0,0,1,0.2400000000000091,0.43771577850330345)"><svg viewBox="0 0 395.52 73.12456844299338" height="73.12456844299338" width="395.52"><g><svg viewBox="0 0 559.7430566906418 103.48647213659272" height="73.12456844299338" width="395.52"><g><rect width="6.8097567891417965" height="103.48647213659272" x="139.5867114482492" y="0" fill="#000000" opacity="1" stroke-width="0" stroke="transparent" fill-opacity="1" class="rect-yte-0" data-fill-palette-color="primary" rx="1%" id="yte-0" data-palette-color="#cae6d3"></rect></g><g transform="matrix(1,0,0,1,164.22305669064176,0.2574290351656501)"><svg viewBox="0 0 395.52 102.97161406626142" height="102.97161406626142" width="395.52"><g id="textblocktransform"><svg viewBox="0 0 395.52 102.97161406626142" height="102.97161406626142" width="395.52" id="textblock"><g><svg viewBox="0 0 395.52 75.51207430340557" height="75.51207430340557" width="395.52"><g transform="matrix(1,0,0,1,0,0)"><svg width="395.52" viewBox="0.6 -36.4 193.79 37" height="75.51207430340557" data-palette-color="#cae6d3"><path d="M22.75-29.25L22.25-29.25 21.35-24.95 14.2 0 9.6 0 0.6-35 5.5-35 5.95-32.1 11.3-9.6 11.8-5.1 12.3-5.1 12.9-9.6 20.1-34.5 24.8-34.5 32.05-9.6 32.65-5.1 33.15-5.1 33.65-9.6 38.95-32.1 39.4-35 44.3-35 35.35 0 30.75 0 23.6-24.95 22.75-29.25ZM58.85 0.6L58.85 0.6Q55.65 0.6 53.1-0.95 50.55-2.5 49.07-5.5 47.6-8.5 47.6-12.75L47.6-12.75Q47.6-17.25 49.15-20.23 50.7-23.2 53.22-24.65 55.75-26.1 58.65-26.1L58.65-26.1Q60.1-26.1 61.25-25.83 62.4-25.55 63.2-25.25L63.2-25.25 68.1-21.9 68.1-18.9Q67.2-19.95 66.02-20.75 64.85-21.55 63.35-22.03 61.85-22.5 59.85-22.5L59.85-22.5Q57.05-22.5 55.3-21.45 53.55-20.4 52.72-18.23 51.9-16.05 51.9-12.75L51.9-12.75Q51.9-7.9 53.77-5.45 55.65-3 59.95-3L59.95-3Q62-3 63.35-3.5 64.7-4 65.57-4.78 66.45-5.55 66.95-6.45L66.95-6.45 67.35-3.45 63.05 0Q62.1 0.25 61.05 0.43 60 0.6 58.85 0.6ZM71 0L67.05 0 66.3-2.6 66.3-32.4 65.8-36.4 71-36.4 70.5-32.4 70.5-4 71 0ZM92.85 0L78.8 0 79.3-4 79.3-31 78.8-35 91.85-35Q96.9-35 99.87-32.6 102.85-30.2 102.85-25.75L102.85-25.75Q102.85-23.25 101.65-21.38 100.45-19.5 97.35-18.45L97.35-18.45 97.35-18.15Q100.25-17.55 102.22-15.43 104.2-13.3 104.2-9.4L104.2-9.4Q104.2-6.15 102.75-4.05 101.3-1.95 98.75-0.98 96.2 0 92.85 0L92.85 0ZM83.55-16.1L83.55-3.8 92.4-3.8Q95.7-3.8 97.7-5.03 99.7-6.25 99.7-9.75L99.7-9.75Q99.7-13.25 97.75-14.68 95.8-16.1 92.55-16.1L92.55-16.1 83.55-16.1ZM83.55-31.2L83.55-19.9 92.25-19.9Q94.9-19.9 96.67-21.28 98.45-22.65 98.45-25.85L98.45-25.85Q98.45-28.9 96.67-30.05 94.9-31.2 91.8-31.2L91.8-31.2 83.55-31.2ZM115.79-29.7L115.79-29.7Q114.59-29.7 113.74-30.48 112.89-31.25 112.89-32.6L112.89-32.6Q112.89-33.95 113.74-34.73 114.59-35.5 115.79-35.5L115.79-35.5Q116.99-35.5 117.84-34.73 118.69-33.95 118.69-32.6L118.69-32.6Q118.69-31.25 117.84-30.48 116.99-29.7 115.79-29.7ZM119.19 0L113.99 0 114.49-4 114.49-22.1 109.29-22.1 109.29-25.5 119.19-25.5 118.69-21.5 118.69-4 119.19 0ZM164.49 0L159.29 0 159.79-4 159.79-16.55Q159.79-19.45 158.19-20.88 156.59-22.3 153.99-22.3L153.99-22.3Q151.69-22.3 150.07-21.43 148.44-20.55 147.39-19.45 146.34-18.35 145.84-17.7L145.84-17.7 145.84-21.35 151.04-25.6Q152.14-25.9 153.12-26 154.09-26.1 154.89-26.1L154.89-26.1Q158.24-26.1 160.24-24.98 162.24-23.85 163.12-22 163.99-20.15 163.99-17.95L163.99-17.95 163.99-4 164.49 0ZM132.49 0L127.29 0 127.79-4 127.79-21.5 127.29-25.5 131.04-25.5 131.99-20.1 131.99-4 132.49 0ZM148.49 0L143.29 0 143.79-4 143.79-16.55Q143.79-19.45 142.24-20.88 140.69-22.3 138.09-22.3L138.09-22.3Q135.84-22.3 134.17-21.45 132.49-20.6 131.44-19.55 130.39-18.5 129.89-17.9L129.89-17.9 129.89-21.35 135.09-25.6Q136.44-25.9 137.52-26 138.59-26.1 139.34-26.1L139.34-26.1Q142.49-26.1 144.39-24.98 146.29-23.85 147.14-22 147.99-20.15 147.99-17.95L147.99-17.95 147.99-4 148.49 0ZM182.44 0.6L182.44 0.6Q179.44 0.6 176.69-0.7 173.94-2 172.21-4.95 170.49-7.9 170.49-12.75L170.49-12.75Q170.49-16.45 171.49-19 172.49-21.55 174.19-23.13 175.89-24.7 178.04-25.4 180.19-26.1 182.44-26.1L182.44-26.1Q184.69-26.1 186.84-25.4 188.99-24.7 190.69-23.13 192.39-21.55 193.39-19 194.39-16.45 194.39-12.75L194.39-12.75Q194.39-7.9 192.66-4.95 190.94-2 188.21-0.7 185.49 0.6 182.44 0.6ZM182.44-3L182.44-3Q185.99-3 188.04-5.2 190.09-7.4 190.09-12.85L190.09-12.85Q190.09-16.5 189.16-18.6 188.24-20.7 186.54-21.6 184.84-22.5 182.44-22.5L182.44-22.5Q180.04-22.5 178.34-21.6 176.64-20.7 175.71-18.6 174.79-16.5 174.79-12.85L174.79-12.85Q174.79-7.4 176.84-5.2 178.89-3 182.44-3Z" opacity="1" transform="matrix(1,0,0,1,0,0)" fill="#000000" class="wordmark-text-0" data-fill-palette-color="primary" id="text-0"></path></svg></g></svg></g><g transform="matrix(1,0,0,1,0,93.33866275665635)"><svg viewBox="0 0 232.209792 9.63295130960507" height="9.63295130960507" width="232.209792"><g transform="matrix(1,0,0,1,0,0)"><svg width="232.209792" viewBox="2.1 -39.45 1230.48 51.050000000000004" height="9.63295130960507" data-palette-color="#cae6d3"><path d="M2.1-33.75L2.1 0 7.2 0 7.2-9.85 17.07-9.85Q22.68-9.85 24.61-13.26 26.55-16.68 26.55-21.83L26.55-21.83Q26.55-26.95 24.61-30.35 22.68-33.75 17.07-33.75L17.07-33.75 2.1-33.75ZM15.53-13.4L7.2-13.4 7.2-30.2 15.53-30.2Q18.82-30.2 20.15-28.04 21.48-25.88 21.48-21.8L21.48-21.8Q21.48-17.73 20.15-15.56 18.82-13.4 15.53-13.4L15.53-13.4ZM32.05-29.65L32.05 0 37.12 0 37.12-29.65 32.05-29.65ZM37.12-37.75L32.05-37.75 32.05-33.27 37.12-33.27 37.12-37.75ZM55.67 0.2L55.67 0.2Q62.32 0.2 65.51-3.49 68.7-7.18 68.7-14.9L68.7-14.9Q68.7-22.63 65.51-26.29 62.32-29.95 55.67-29.95L55.67-29.95Q49.05-29.95 45.85-26.29 42.65-22.63 42.65-14.9L42.65-14.9Q42.65-7.18 45.85-3.49 49.05 0.2 55.67 0.2ZM55.67-3.28L55.67-3.28Q52.2-3.28 49.95-5.71 47.7-8.15 47.7-14.88L47.7-14.88Q47.7-21.6 49.95-24.03 52.2-26.45 55.67-26.45L55.67-26.45Q59.15-26.45 61.4-24.03 63.65-21.6 63.65-14.88L63.65-14.88Q63.65-8.15 61.4-5.71 59.15-3.28 55.67-3.28ZM73.59-29.63L73.59 0 78.64 0 78.64-23.9 77.57-29.63 73.59-29.63ZM92.17-16.93L92.17 0 97.22 0 97.22-16.95Q97.22-23 95.08-26.46 92.94-29.93 87.79-29.93L87.79-29.93Q82.62-29.93 79.33-26.7 76.04-23.48 76.04-19.83L76.04-19.83 78.49-18.28Q78.49-21.78 80.67-24.08 82.84-26.38 85.97-26.38L85.97-26.38Q89.09-26.38 90.63-24.23 92.17-22.08 92.17-16.93L92.17-16.93ZM114.82 0.25L114.82 0.25 114.82-3.1Q111.02-3.1 108.89-5.88L108.89-5.88Q106.74-8.6 106.74-14.88L106.74-14.88Q106.74-21.5 108.97-24.05L108.97-24.05Q111.17-26.58 114.74-26.58L114.74-26.58Q118.42-26.58 120.47-24.18L120.47-24.18Q122.24-21.93 122.44-16.48L122.44-16.48 106.19-16.48 106.19-13.33 127.44-13.33Q127.54-14.08 127.54-14.95L127.54-14.95Q127.54-22.38 124.59-26.15L124.59-26.15Q121.62-29.93 114.74-29.93L114.74-29.93Q108.07-29.93 104.97-26.15L104.97-26.15Q101.84-22.4 101.84-14.88L101.84-14.88Q101.84-7.78 104.89-3.75L104.89-3.75Q107.92 0.25 114.82 0.25ZM114.82-3.1L114.82-3.1 114.82 0.25Q118.57 0.25 121.02-0.73L121.02-0.73Q123.47-1.7 125.02-3.85L125.02-3.85Q126.54-5.98 126.97-9.03L126.97-9.03 122.42-10.25Q121.99-8.05 121.14-6.3L121.14-6.3Q120.24-4.55 118.62-3.83L118.62-3.83Q116.99-3.1 114.82-3.1ZM144.74 0.25L144.74 0.25 144.74-3.1Q140.94-3.1 138.81-5.88L138.81-5.88Q136.66-8.6 136.66-14.88L136.66-14.88Q136.66-21.5 138.89-24.05L138.89-24.05Q141.09-26.58 144.66-26.58L144.66-26.58Q148.34-26.58 150.39-24.18L150.39-24.18Q152.16-21.93 152.36-16.48L152.36-16.48 136.11-16.48 136.11-13.33 157.36-13.33Q157.46-14.08 157.46-14.95L157.46-14.95Q157.46-22.38 154.51-26.15L154.51-26.15Q151.54-29.93 144.66-29.93L144.66-29.93Q137.99-29.93 134.89-26.15L134.89-26.15Q131.76-22.4 131.76-14.88L131.76-14.88Q131.76-7.78 134.81-3.75L134.81-3.75Q137.84 0.25 144.74 0.25ZM144.74-3.1L144.74-3.1 144.74 0.25Q148.49 0.25 150.94-0.73L150.94-0.73Q153.39-1.7 154.94-3.85L154.94-3.85Q156.46-5.98 156.89-9.03L156.89-9.03 152.34-10.25Q151.91-8.05 151.06-6.3L151.06-6.3Q150.16-4.55 148.54-3.83L148.54-3.83Q146.91-3.1 144.74-3.1ZM180.24-15.83L180.24-15.83 185.29-15.83Q185.29-23.15 183.32-26.51 181.36-29.88 176.31-29.88L176.31-29.88Q171.41-29.88 168.51-27.2 165.61-24.53 165.61-20.73L165.61-20.73 167.56-19.3Q167.56-22.03 169.41-24.19 171.26-26.35 174.49-26.35L174.49-26.35Q177.31-26.35 178.77-24.14 180.24-21.93 180.24-15.83ZM162.54-29.63L162.54 0 167.59 0 167.59-23.9 166.51-29.63 162.54-29.63ZM202.93 0.2L202.93 0.2Q208.78 0.2 211.83-1.8 214.88-3.8 214.88-7.9L214.88-7.9Q214.88-12.35 211.82-14.04 208.76-15.73 204.23-16.65L204.23-16.65Q200.41-17.53 197.92-18.48 195.43-19.43 195.43-22.03L195.43-22.03Q195.43-24.1 197.07-25.33 198.71-26.55 202.08-26.55L202.08-26.55Q205.58-26.55 207.62-24.85 209.66-23.15 210.08-19.88L210.08-19.88 214.56-21.4Q213.83-25.95 210.7-27.91 207.56-29.88 202.13-29.88L202.13-29.88Q196.68-29.88 193.56-27.86 190.43-25.85 190.43-22L190.43-22Q190.43-17.78 193.27-15.96 196.11-14.15 200.63-13.18L200.63-13.18Q204.61-12.3 207.23-11.34 209.86-10.38 209.86-7.55L209.86-7.55Q209.86-5.58 208.15-4.36 206.43-3.15 203.01-3.15L203.01-3.15Q199.38-3.15 197.25-4.78 195.11-6.4 194.68-10.15L194.68-10.15 190.21-8.63Q190.98-3.65 194.28-1.73 197.58 0.2 202.93 0.2ZM233.03-29.65L233.03 0 238.1 0 238.1-29.65 233.03-29.65ZM238.1-37.75L233.03-37.75 233.03-33.27 238.1-33.27 238.1-37.75ZM244.53-29.63L244.53 0 249.58 0 249.58-23.9 248.5-29.63 244.53-29.63ZM263.1-16.93L263.1 0 268.15 0 268.15-16.95Q268.15-23 266.01-26.46 263.88-29.93 258.73-29.93L258.73-29.93Q253.55-29.93 250.26-26.7 246.98-23.48 246.98-19.83L246.98-19.83 249.43-18.28Q249.43-21.78 251.6-24.08 253.78-26.38 256.9-26.38L256.9-26.38Q260.03-26.38 261.56-24.23 263.1-22.08 263.1-16.93L263.1-16.93ZM296.47-33.83L285.17 0 290.45 0 293.42-9.38 306.85-9.38 309.8 0 315.1 0 303.8-33.83 296.47-33.83ZM305.97-12.83L294.32-12.83 300.12-30.78 300.17-30.78 305.97-12.83ZM329.34 11.6L329.34 11.6Q333.19 11.6 335.84 10.49 338.49 9.38 340.21 6.64 341.92 3.9 341.92-0.85L341.92-0.85 341.92-29.63 338.14-29.63 336.84-23.58 336.84-0.38Q336.84 4.75 334.84 6.55 332.84 8.35 329.52 8.35L329.52 8.35Q327.49 8.35 325.93 7.69 324.37 7.03 323.48 5.61 322.59 4.2 322.42 1.85L322.42 1.85 317.44 1.85Q317.84 7.23 321.16 9.41 324.47 11.6 329.34 11.6ZM327.52 0.2L327.52 0.2Q332.37 0.2 335.72-2.2 339.07-4.6 339.07-7.3L339.07-7.3 336.84-10.03Q336.84-7.43 334.58-5.38 332.32-3.33 329.17-3.33L329.17-3.33Q325.82-3.33 323.87-5.76 321.92-8.2 321.92-14.85L321.92-14.85Q321.92-21.5 323.87-23.94 325.82-26.38 329.17-26.38L329.17-26.38Q332.32-26.38 334.58-24.34 336.84-22.3 336.84-19.73L336.84-19.73 339.02-22.28Q339.02-24.9 335.67-27.4 332.32-29.9 327.47-29.9L327.47-29.9Q322.14-29.9 319.48-26.18 316.82-22.45 316.82-14.88L316.82-14.88Q316.82-7.3 319.51-3.55 322.19 0.2 327.52 0.2ZM365.37-15.83L365.37-15.83 370.42-15.83Q370.42-23.15 368.45-26.51 366.49-29.88 361.44-29.88L361.44-29.88Q356.54-29.88 353.64-27.2 350.74-24.53 350.74-20.73L350.74-20.73 352.69-19.3Q352.69-22.03 354.54-24.19 356.39-26.35 359.62-26.35L359.62-26.35Q362.44-26.35 363.9-24.14 365.37-21.93 365.37-15.83ZM347.67-29.63L347.67 0 352.72 0 352.72-23.9 351.64-29.63 347.67-29.63ZM376.61-29.65L376.61 0 381.69 0 381.69-29.65 376.61-29.65ZM381.69-37.75L376.61-37.75 376.61-33.27 381.69-33.27 381.69-37.75ZM399.84 0.25L399.84 0.25Q406.06 0.25 408.72-3.09 411.39-6.43 411.64-9.9L411.64-9.9 407.11-11.45Q407.01-8.18 405.12-5.74 403.24-3.3 399.84-3.3L399.84-3.3Q396.39-3.3 394.22-6 392.06-8.7 392.06-14.8L392.06-14.8Q392.06-21.3 394.2-23.83 396.34-26.35 399.84-26.35L399.84-26.35Q403.26-26.35 405.14-24.09 407.01-21.83 407.11-18.1L407.11-18.1 411.64-19.6Q411.39-23.5 408.74-26.7 406.09-29.9 399.84-29.9L399.84-29.9Q393.01-29.9 389.96-26.16 386.91-22.43 386.91-14.8L386.91-14.8Q386.91-7.53 389.96-3.64 393.01 0.25 399.84 0.25ZM435.21-5L436.33 0 440.26 0 440.26-29.63 435.21-29.63 435.21-5ZM421.56-12.75L421.56-29.65 416.51-29.65 416.51-12.55Q416.51-6.5 418.62-3.11 420.73 0.28 425.93 0.28L425.93 0.28Q431.33 0.28 434.52-2.96 437.71-6.2 437.71-9.83L437.71-9.83 435.23-11.3Q435.23-7.8 433.05-5.54 430.86-3.28 427.71-3.28L427.71-3.28Q424.58-3.28 423.07-5.43 421.56-7.58 421.56-12.75L421.56-12.75ZM446.63-39.25L446.63 0 451.71 0 451.71-39.25 446.63-39.25ZM470.35 0.33L470.35 0.33Q473.1 0.33 475.6-0.3L475.6-0.3 475.6-3.73Q473.88-3.15 472.05-3.15L472.05-3.15Q470-3.15 468.88-4.03 467.75-4.9 467.75-7.63L467.75-7.63 467.75-26.08 477.55-26.08 477.55-29.63 467.75-29.63 467.75-36.33 462.68-36.33 462.68-29.63 455.75-29.63 455.75-26.08 462.68-26.08 462.68-6.45Q462.68-2.55 464.88-1.11 467.08 0.33 470.35 0.33ZM500.4-5L501.53 0 505.45 0 505.45-29.63 500.4-29.63 500.4-5ZM486.75-12.75L486.75-29.65 481.7-29.65 481.7-12.55Q481.7-6.5 483.81-3.11 485.93 0.28 491.13 0.28L491.13 0.28Q496.53 0.28 499.71-2.96 502.9-6.2 502.9-9.83L502.9-9.83 500.43-11.3Q500.43-7.8 498.24-5.54 496.05-3.28 492.9-3.28L492.9-3.28Q489.78-3.28 488.26-5.43 486.75-7.58 486.75-12.75L486.75-12.75ZM528.9-15.83L528.9-15.83 533.95-15.83Q533.95-23.15 531.99-26.51 530.02-29.88 524.97-29.88L524.97-29.88Q520.07-29.88 517.17-27.2 514.27-24.53 514.27-20.73L514.27-20.73 516.22-19.3Q516.22-22.03 518.07-24.19 519.92-26.35 523.15-26.35L523.15-26.35Q525.97-26.35 527.44-24.14 528.9-21.93 528.9-15.83ZM511.2-29.63L511.2 0 516.25 0 516.25-23.9 515.17-29.63 511.2-29.63ZM550.77 0.25L550.77 0.25 550.77-3.1Q546.97-3.1 544.85-5.88L544.85-5.88Q542.7-8.6 542.7-14.88L542.7-14.88Q542.7-21.5 544.92-24.05L544.92-24.05Q547.12-26.58 550.7-26.58L550.7-26.58Q554.37-26.58 556.42-24.18L556.42-24.18Q558.2-21.93 558.4-16.48L558.4-16.48 542.15-16.48 542.15-13.33 563.4-13.33Q563.5-14.08 563.5-14.95L563.5-14.95Q563.5-22.38 560.55-26.15L560.55-26.15Q557.57-29.93 550.7-29.93L550.7-29.93Q544.02-29.93 540.92-26.15L540.92-26.15Q537.8-22.4 537.8-14.88L537.8-14.88Q537.8-7.78 540.85-3.75L540.85-3.75Q543.87 0.25 550.77 0.25ZM550.77-3.1L550.77-3.1 550.77 0.25Q554.52 0.25 556.97-0.73L556.97-0.73Q559.42-1.7 560.97-3.85L560.97-3.85Q562.5-5.98 562.92-9.03L562.92-9.03 558.37-10.25Q557.95-8.05 557.1-6.3L557.1-6.3Q556.2-4.55 554.57-3.83L554.57-3.83Q552.95-3.1 550.77-3.1ZM593.49 0.28L593.49 0.28Q601.19 0.28 606.94-3.79 612.69-7.85 612.69-16.9L612.69-16.9 608.14-16.9Q608.14-9.4 603.73-6.35 599.31-3.3 593.76-3.3L593.76-3.3Q588.99-3.3 586.7-4.7 584.41-6.1 584.41-8.9L584.41-8.9Q584.41-11.68 587.05-13.53 589.69-15.38 593.66-17.13L593.66-17.13Q597.54-18.98 600.56-21.04 603.59-23.1 603.59-26.48L603.59-26.48Q603.59-30.3 600.85-32.18 598.12-34.05 593.79-34.05L593.79-34.05Q589.79-34.05 586.99-32.18 584.19-30.3 584.19-26.45L584.19-26.45Q584.19-23.38 586.19-21.01 588.19-18.65 590.01-16.93L590.01-16.93 607.31 0 613.16 0 593.66-19.38Q591.74-21.08 590.39-22.74 589.04-24.4 589.04-26.45L589.04-26.45Q589.04-28.65 590.37-29.65 591.69-30.65 593.81-30.65L593.81-30.65Q596.09-30.65 597.45-29.61 598.81-28.58 598.81-26.45L598.81-26.45Q598.81-24.43 596.72-22.91 594.62-21.4 591.16-19.98L591.16-19.98Q587.72-18.32 583.54-15.66 579.37-13 579.37-8.63L579.37-8.63Q579.37-4.23 582.99-1.98 586.62 0.28 593.49 0.28ZM630.78-33.75L630.78 0 635.88 0 635.88-33.75 630.78-33.75ZM642.91-29.63L642.91 0 647.96 0 647.96-23.9 646.88-29.63 642.91-29.63ZM661.48-16.93L661.48 0 666.53 0 666.53-16.95Q666.53-23 664.39-26.46 662.26-29.93 657.11-29.93L657.11-29.93Q651.93-29.93 648.64-26.7 645.36-23.48 645.36-19.83L645.36-19.83 647.81-18.28Q647.81-21.78 649.98-24.08 652.16-26.38 655.28-26.38L655.28-26.38Q658.41-26.38 659.94-24.23 661.48-22.08 661.48-16.93L661.48-16.93ZM691.13-4.88L691.45 0 696.15 0 696.15-39.25 691.13-39.25 691.13-4.88ZM681.75 0.2L681.75 0.2Q686.6 0.2 689.95-2.24 693.3-4.67 693.3-7.3L693.3-7.3 691.13-10.03Q691.13-7.43 688.87-5.38 686.6-3.33 683.45-3.33L683.45-3.33Q680.1-3.33 678.15-5.76 676.2-8.2 676.2-14.85L676.2-14.85Q676.2-21.5 678.15-23.94 680.1-26.38 683.45-26.38L683.45-26.38Q686.6-26.38 688.87-24.34 691.13-22.3 691.13-19.73L691.13-19.73 693.3-22.38Q693.3-25.03 689.95-27.46 686.6-29.9 681.75-29.9L681.75-29.9Q676.43-29.9 673.77-26.18 671.1-22.45 671.1-14.88L671.1-14.88Q671.1-7.3 673.77-3.55 676.43 0.2 681.75 0.2ZM719.95-5L721.08 0 725 0 725-29.63 719.95-29.63 719.95-5ZM706.3-12.75L706.3-29.65 701.25-29.65 701.25-12.55Q701.25-6.5 703.36-3.11 705.48 0.28 710.68 0.28L710.68 0.28Q716.08 0.28 719.26-2.96 722.45-6.2 722.45-9.83L722.45-9.83 719.98-11.3Q719.98-7.8 717.79-5.54 715.6-3.28 712.45-3.28L712.45-3.28Q709.33-3.28 707.81-5.43 706.3-7.58 706.3-12.75L706.3-12.75ZM742.92 0.2L742.92 0.2Q748.77 0.2 751.82-1.8 754.87-3.8 754.87-7.9L754.87-7.9Q754.87-12.35 751.81-14.04 748.75-15.73 744.22-16.65L744.22-16.65Q740.4-17.53 737.91-18.48 735.42-19.43 735.42-22.03L735.42-22.03Q735.42-24.1 737.06-25.33 738.7-26.55 742.07-26.55L742.07-26.55Q745.57-26.55 747.61-24.85 749.65-23.15 750.07-19.88L750.07-19.88 754.55-21.4Q753.82-25.95 750.69-27.91 747.55-29.88 742.12-29.88L742.12-29.88Q736.67-29.88 733.55-27.86 730.42-25.85 730.42-22L730.42-22Q730.42-17.78 733.26-15.96 736.1-14.15 740.62-13.18L740.62-13.18Q744.6-12.3 747.22-11.34 749.85-10.38 749.85-7.55L749.85-7.55Q749.85-5.58 748.14-4.36 746.42-3.15 743-3.15L743-3.15Q739.37-3.15 737.24-4.78 735.1-6.4 734.67-10.15L734.67-10.15 730.2-8.63Q730.97-3.65 734.27-1.73 737.57 0.2 742.92 0.2ZM771.95 0.33L771.95 0.33Q774.7 0.33 777.2-0.3L777.2-0.3 777.2-3.73Q775.47-3.15 773.65-3.15L773.65-3.15Q771.6-3.15 770.47-4.03 769.35-4.9 769.35-7.63L769.35-7.63 769.35-26.08 779.15-26.08 779.15-29.63 769.35-29.63 769.35-36.33 764.27-36.33 764.27-29.63 757.35-29.63 757.35-26.08 764.27-26.08 764.27-6.45Q764.27-2.55 766.47-1.11 768.67 0.33 771.95 0.33ZM801.29-15.83L801.29-15.83 806.34-15.83Q806.34-23.15 804.38-26.51 802.42-29.88 797.37-29.88L797.37-29.88Q792.47-29.88 789.57-27.2 786.67-24.53 786.67-20.73L786.67-20.73 788.62-19.3Q788.62-22.03 790.47-24.19 792.32-26.35 795.54-26.35L795.54-26.35Q798.37-26.35 799.83-24.14 801.29-21.93 801.29-15.83ZM783.59-29.63L783.59 0 788.64 0 788.64-23.9 787.57-29.63 783.59-29.63ZM812.54-29.65L812.54 0 817.62 0 817.62-29.65 812.54-29.65ZM817.62-37.75L812.54-37.75 812.54-33.27 817.62-33.27 817.62-37.75ZM833.51 0.28L833.51 0.28Q835.69 0.28 837.4-0.11 839.11-0.5 840.36-1.11 841.61-1.73 842.41-2.43 843.21-3.13 843.54-3.75L843.54-3.75 843.96 0 848.19 0 848.19-18.85Q848.19-22.85 846.75-25.28 845.31-27.7 842.56-28.8 839.81-29.9 835.86-29.9L835.86-29.9Q833.51-29.9 831.46-29.41 829.41-28.93 827.8-27.88 826.19-26.83 825.1-25.13 824.01-23.43 823.61-20.98L823.61-20.98 828.56-19.65Q828.94-22.13 829.93-23.61 830.91-25.1 832.44-25.78 833.96-26.45 835.89-26.45L835.89-26.45Q838.11-26.45 839.74-25.7 841.36-24.95 842.24-23.34 843.11-21.73 843.11-19.1L843.11-19.1 843.11-17.43 833.44-17.43Q831.11-17.43 829.24-17 827.36-16.57 826.05-15.59 824.74-14.6 824.04-12.91 823.34-11.23 823.34-8.68L823.34-8.68Q823.34-6.03 824.05-4.29 824.76-2.55 826.13-1.55 827.49-0.55 829.35-0.14 831.21 0.28 833.51 0.28ZM834.61-3.05L834.61-3.05Q833.34-3.05 832.21-3.31 831.09-3.58 830.24-4.2 829.39-4.83 828.93-5.95 828.46-7.08 828.46-8.88L828.46-8.88Q828.46-10.63 828.94-11.75 829.41-12.88 830.25-13.49 831.09-14.1 832.21-14.34 833.34-14.58 834.61-14.58L834.61-14.58 843.04-14.58 843.04-6.85Q842.61-5.93 841.49-5.05 840.36-4.17 838.63-3.61 836.89-3.05 834.61-3.05ZM854.24-39.25L854.24 0 859.31 0 859.31-39.25 854.24-39.25ZM877.26-33.75L877.26 0 882.28 0 882.28-30.2 882.41-30.2 891.43-1.85 897.53-1.85 906.56-30.2 906.68-30.2 906.68 0 911.71 0 911.71-33.75 903.38-33.75 894.53-5.5 894.43-5.5 885.58-33.75 877.26-33.75ZM927.05 0.28L927.05 0.28Q929.23 0.28 930.94-0.11 932.65-0.5 933.9-1.11 935.15-1.73 935.95-2.43 936.75-3.13 937.08-3.75L937.08-3.75 937.5 0 941.73 0 941.73-18.85Q941.73-22.85 940.29-25.28 938.85-27.7 936.1-28.8 933.35-29.9 929.4-29.9L929.4-29.9Q927.05-29.9 925-29.41 922.95-28.93 921.34-27.88 919.73-26.83 918.64-25.13 917.55-23.43 917.15-20.98L917.15-20.98 922.1-19.65Q922.48-22.13 923.47-23.61 924.45-25.1 925.98-25.78 927.5-26.45 929.43-26.45L929.43-26.45Q931.65-26.45 933.28-25.7 934.9-24.95 935.78-23.34 936.65-21.73 936.65-19.1L936.65-19.1 936.65-17.43 926.98-17.43Q924.65-17.43 922.78-17 920.9-16.57 919.59-15.59 918.28-14.6 917.58-12.91 916.88-11.23 916.88-8.68L916.88-8.68Q916.88-6.03 917.59-4.29 918.3-2.55 919.67-1.55 921.03-0.55 922.89-0.14 924.75 0.28 927.05 0.28ZM928.15-3.05L928.15-3.05Q926.88-3.05 925.75-3.31 924.63-3.58 923.78-4.2 922.93-4.83 922.47-5.95 922-7.08 922-8.88L922-8.88Q922-10.63 922.48-11.75 922.95-12.88 923.79-13.49 924.63-14.1 925.75-14.34 926.88-14.58 928.15-14.58L928.15-14.58 936.58-14.58 936.58-6.85Q936.15-5.93 935.03-5.05 933.9-4.17 932.17-3.61 930.43-3.05 928.15-3.05ZM947.15-29.63L947.15 0 952.2 0 952.2-23.9 951.13-29.63 947.15-29.63ZM965.73-16.93L965.73 0 970.78 0 970.78-16.95Q970.78-23 968.64-26.46 966.5-29.93 961.35-29.93L961.35-29.93Q956.18-29.93 952.89-26.7 949.6-23.48 949.6-19.83L949.6-19.83 952.05-18.28Q952.05-21.78 954.23-24.08 956.4-26.38 959.53-26.38L959.53-26.38Q962.65-26.38 964.19-24.23 965.73-22.08 965.73-16.93L965.73-16.93ZM994.65-5L995.77 0 999.7 0 999.7-29.63 994.65-29.63 994.65-5ZM981-12.75L981-29.65 975.95-29.65 975.95-12.55Q975.95-6.5 978.06-3.11 980.17 0.28 985.37 0.28L985.37 0.28Q990.77 0.28 993.96-2.96 997.15-6.2 997.15-9.83L997.15-9.83 994.67-11.3Q994.67-7.8 992.49-5.54 990.3-3.28 987.15-3.28L987.15-3.28Q984.02-3.28 982.51-5.43 981-7.58 981-12.75L981-12.75ZM1009.72-26.1L1009.72 0 1014.77 0 1014.77-26.1 1023.25-26.1 1023.25-29.63 1014.77-29.63 1014.77-31.48Q1014.77-34.25 1016.9-35.15 1019.02-36.05 1022.82-36.05L1022.82-36.05 1023.57-36.05 1023.57-39.45 1022.72-39.45Q1016.8-39.45 1013.26-37.69 1009.72-35.93 1009.72-31.5L1009.72-31.5 1009.72-29.63 1003.7-29.63 1003.7-26.1 1009.72-26.1ZM1036.44 0.28L1036.44 0.28Q1038.62 0.28 1040.33-0.11 1042.04-0.5 1043.29-1.11 1044.54-1.73 1045.34-2.43 1046.14-3.13 1046.47-3.75L1046.47-3.75 1046.89 0 1051.12 0 1051.12-18.85Q1051.12-22.85 1049.68-25.28 1048.24-27.7 1045.49-28.8 1042.74-29.9 1038.79-29.9L1038.79-29.9Q1036.44-29.9 1034.39-29.41 1032.34-28.93 1030.73-27.88 1029.12-26.83 1028.03-25.13 1026.94-23.43 1026.54-20.98L1026.54-20.98 1031.49-19.65Q1031.87-22.13 1032.86-23.61 1033.84-25.1 1035.37-25.78 1036.89-26.45 1038.82-26.45L1038.82-26.45Q1041.04-26.45 1042.67-25.7 1044.29-24.95 1045.17-23.34 1046.04-21.73 1046.04-19.1L1046.04-19.1 1046.04-17.43 1036.37-17.43Q1034.04-17.43 1032.17-17 1030.29-16.57 1028.98-15.59 1027.67-14.6 1026.97-12.91 1026.27-11.23 1026.27-8.68L1026.27-8.68Q1026.27-6.03 1026.98-4.29 1027.69-2.55 1029.06-1.55 1030.42-0.55 1032.28-0.14 1034.14 0.28 1036.44 0.28ZM1037.54-3.05L1037.54-3.05Q1036.27-3.05 1035.14-3.31 1034.02-3.58 1033.17-4.2 1032.32-4.83 1031.86-5.95 1031.39-7.08 1031.39-8.88L1031.39-8.88Q1031.39-10.63 1031.87-11.75 1032.34-12.88 1033.18-13.49 1034.02-14.1 1035.14-14.34 1036.27-14.58 1037.54-14.58L1037.54-14.58 1045.97-14.58 1045.97-6.85Q1045.54-5.93 1044.42-5.05 1043.29-4.17 1041.56-3.61 1039.82-3.05 1037.54-3.05ZM1068.27 0.25L1068.27 0.25Q1074.49 0.25 1077.15-3.09 1079.82-6.43 1080.07-9.9L1080.07-9.9 1075.54-11.45Q1075.44-8.18 1073.55-5.74 1071.67-3.3 1068.27-3.3L1068.27-3.3Q1064.82-3.3 1062.65-6 1060.49-8.7 1060.49-14.8L1060.49-14.8Q1060.49-21.3 1062.63-23.83 1064.77-26.35 1068.27-26.35L1068.27-26.35Q1071.69-26.35 1073.57-24.09 1075.44-21.83 1075.54-18.1L1075.54-18.1 1080.07-19.6Q1079.82-23.5 1077.17-26.7 1074.52-29.9 1068.27-29.9L1068.27-29.9Q1061.44-29.9 1058.39-26.16 1055.34-22.43 1055.34-14.8L1055.34-14.8Q1055.34-7.53 1058.39-3.64 1061.44 0.25 1068.27 0.25ZM1097.99 0.33L1097.99 0.33Q1100.74 0.33 1103.24-0.3L1103.24-0.3 1103.24-3.73Q1101.51-3.15 1099.69-3.15L1099.69-3.15Q1097.64-3.15 1096.51-4.03 1095.39-4.9 1095.39-7.63L1095.39-7.63 1095.39-26.08 1105.19-26.08 1105.19-29.63 1095.39-29.63 1095.39-36.33 1090.31-36.33 1090.31-29.63 1083.39-29.63 1083.39-26.08 1090.31-26.08 1090.31-6.45Q1090.31-2.55 1092.51-1.11 1094.71 0.33 1097.99 0.33ZM1128.04-5L1129.16 0 1133.09 0 1133.09-29.63 1128.04-29.63 1128.04-5ZM1114.39-12.75L1114.39-29.65 1109.34-29.65 1109.34-12.55Q1109.34-6.5 1111.45-3.11 1113.56 0.28 1118.76 0.28L1118.76 0.28Q1124.16 0.28 1127.35-2.96 1130.54-6.2 1130.54-9.83L1130.54-9.83 1128.06-11.3Q1128.06-7.8 1125.87-5.54 1123.69-3.28 1120.54-3.28L1120.54-3.28Q1117.41-3.28 1115.9-5.43 1114.39-7.58 1114.39-12.75L1114.39-12.75ZM1156.53-15.83L1156.53-15.83 1161.58-15.83Q1161.58-23.15 1159.62-26.51 1157.66-29.88 1152.61-29.88L1152.61-29.88Q1147.71-29.88 1144.81-27.2 1141.91-24.53 1141.91-20.73L1141.91-20.73 1143.86-19.3Q1143.86-22.03 1145.71-24.19 1147.56-26.35 1150.78-26.35L1150.78-26.35Q1153.61-26.35 1155.07-24.14 1156.53-21.93 1156.53-15.83ZM1138.83-29.63L1138.83 0 1143.88 0 1143.88-23.9 1142.81-29.63 1138.83-29.63ZM1167.78-29.65L1167.78 0 1172.86 0 1172.86-29.65 1167.78-29.65ZM1172.86-37.75L1167.78-37.75 1167.78-33.27 1172.86-33.27 1172.86-37.75ZM1179.28-29.63L1179.28 0 1184.33 0 1184.33-23.9 1183.25-29.63 1179.28-29.63ZM1197.85-16.93L1197.85 0 1202.9 0 1202.9-16.95Q1202.9-23 1200.77-26.46 1198.63-29.93 1193.48-29.93L1193.48-29.93Q1188.3-29.93 1185.02-26.7 1181.73-23.48 1181.73-19.83L1181.73-19.83 1184.18-18.28Q1184.18-21.78 1186.35-24.08 1188.53-26.38 1191.65-26.38L1191.65-26.38Q1194.78-26.38 1196.32-24.23 1197.85-22.08 1197.85-16.93L1197.85-16.93ZM1220 11.6L1220 11.6Q1223.85 11.6 1226.5 10.49 1229.15 9.38 1230.86 6.64 1232.58 3.9 1232.58-0.85L1232.58-0.85 1232.58-29.63 1228.8-29.63 1227.5-23.58 1227.5-0.38Q1227.5 4.75 1225.5 6.55 1223.5 8.35 1220.18 8.35L1220.18 8.35Q1218.15 8.35 1216.59 7.69 1215.03 7.03 1214.14 5.61 1213.25 4.2 1213.08 1.85L1213.08 1.85 1208.1 1.85Q1208.5 7.23 1211.81 9.41 1215.13 11.6 1220 11.6ZM1218.18 0.2L1218.18 0.2Q1223.03 0.2 1226.38-2.2 1229.73-4.6 1229.73-7.3L1229.73-7.3 1227.5-10.03Q1227.5-7.43 1225.24-5.38 1222.98-3.33 1219.83-3.33L1219.83-3.33Q1216.48-3.33 1214.53-5.76 1212.58-8.2 1212.58-14.85L1212.58-14.85Q1212.58-21.5 1214.53-23.94 1216.48-26.38 1219.83-26.38L1219.83-26.38Q1222.98-26.38 1225.24-24.34 1227.5-22.3 1227.5-19.73L1227.5-19.73 1229.68-22.28Q1229.68-24.9 1226.33-27.4 1222.98-29.9 1218.13-29.9L1218.13-29.9Q1212.8-29.9 1210.14-26.18 1207.48-22.45 1207.48-14.88L1207.48-14.88Q1207.48-7.3 1210.16-3.55 1212.85 0.2 1218.18 0.2Z" opacity="1" transform="matrix(1,0,0,1,0,0)" fill="#000000" class="slogan-text-1" data-fill-palette-color="secondary" id="text-1"></path></svg></g></svg></g></svg></g></svg></g><g transform="matrix(1,0,0,1,0,0.2574290351656501)"><svg viewBox="0 0 121.76012299499843 102.97161406626142" height="102.97161406626142" width="121.76012299499843"><g><svg xmlns="http://www.w3.org/2000/svg" xmlns:xlink="http://www.w3.org/1999/xlink" version="1.1" x="0" y="0" viewBox="0.00008318739570276068 0 276.25291681260427 233.625" enable-background="new 0 0 276.252 233.625" xml:space="preserve" id="icon-0" width="121.76012299499843" height="102.97161406626142" class="icon-icon-0" data-fill-palette-color="accent"><g fill="#06303e" data-fill-palette-color="accent"><path d="M150.59 45.375C163.094 45.375 173.283 35.232 173.283 22.698 173.284 10.173 163.094 0 150.59 0 138.03 0 127.883 10.173 127.883 22.698 127.884 35.232 138.031 45.375 150.59 45.375" fill="#000000" data-fill-palette-color="accent"></path><path d="M145.064 197.108C141.75 199.321 136.171 203.188 136.171 203.188L133.41 209.821 129.547 214.237H122.357L105.182 226.997H276.253L268.518 219.236 262.387 213.131 252.445 213.685 245.816 206.503S240.842 198.215 240.842 196.534C240.842 194.879 241.952 188.769 240.285 187.697 238.63 186.565 233.06 183.247 233.06 183.247L219.798 183.801 212.57 174.964 205.38 164.991 196.539 163.31S190.97 163.863 188.809 166.624C186.549 169.41 181.58 171.618 176.607 173.853A82 82 0 0 0 172.432 175.871L105.519 121.335 137.831 58.691 105.182 11.628H36.526L27.506 57.752 14.173 46.885A6.693 6.693 0 0 0 4.779 47.838 6.63 6.63 0 0 0 5.792 57.181L31.67 78.277 15.373 95.88 16.59 157.277 0.465 216.875C-1.45 223.955 2.724 231.264 9.803 233.17 10.956 233.477 12.16 233.625 13.266 233.625 19.146 233.625 24.519 229.732 26.127 223.806L43.201 160.52 45.805 112.671 79.769 152.76 48.077 211.225C44.61 217.705 46.971 225.768 53.446 229.256A13.05 13.05 0 0 0 59.781 230.864C64.499 230.864 69.069 228.353 71.477 223.908L111.763 149.496 95.611 130.402 162.243 184.72 157.768 190.982S148.377 194.879 145.064 197.108M86.666 105.97L72.921 94.767 98.557 83.598zM52.591 35.985L69.175 38.193 47.622 60.342z" fill="#000000" data-fill-palette-color="accent"></path></g></svg></g></svg></g></svg></g><defs></defs></svg><rect width="395.52" height="73.12456844299338" fill="none" stroke="none" visibility="hidden"></rect></g></svg></g></svg>